HIERARCHY
ROOT Hips
{
	OFFSET 0.000000 0.000000 0.000000 
	CHANNELS 6 Xposition Yposition Zposition Zrotation Yrotation Xrotation
	JOINT LeftUpLeg
	{
		OFFSET 1.363060 -1.794630 0.839290 
		CHANNELS 3 Zrotation Yrotation Xrotation
		JOINT LeftLeg
		{
			OFFSET 2.448110 -6.726130 0.000000 
			CHANNELS 3 Zrotation Yrotation Xrotation
			JOINT LeftFoot
			{
				OFFSET 2.562200 -7.039590 0.000000 
				CHANNELS 3 Zrotation Yrotation Xrotation
				JOINT LeftToeBase
				{
					OFFSET 0.157640 -0.433110 2.322550 
					CHANNELS 3 Zrotation Yrotation Xrotation
					End Site
					{
						OFFSET 0.000000 0.000000 0.000000 
					}
				}
			}
		}
	}
	JOINT RightUpLeg
	{
		OFFSET -1.305520 -1.794630 0.839290 
		CHANNELS 3 Zrotation Yrotation Xrotation
		JOINT RightLeg
		{
			OFFSET -2.542530 -6.985550 0.000000 
			CHANNELS 3 Zrotation Yrotation Xrotation
			JOINT RightFoot
			{
				OFFSET -2.568260 -7.056230 0.000000 
				CHANNELS 3 Zrotation Yrotation Xrotation
				JOINT RightToeBase
				{
					OFFSET -0.164730 -0.452590 2.363150 
					CHANNELS 3 Zrotation Yrotation Xrotation
					End Site
					{
						OFFSET 0.000000 0.000000 0.000000 
					}
				}
			}
		}
	}
	JOINT Spine
	{
		OFFSET 0.028270 2.035590 -0.193380 
		CHANNELS 3 Zrotation Yrotation Xrotation
		JOINT Spine1
		{
			OFFSET 0.056720 2.048850 -0.042750 
			CHANNELS 3 Zrotation Yrotation Xrotation
			JOINT Neck1
			{
				OFFSET -0.054170 1.746240 0.172020 
				CHANNELS 3 Zrotation Yrotation Xrotation
				JOINT Head
				{
					OFFSET 0.104070 1.761360 -0.123970 
					CHANNELS 3 Zrotation Yrotation Xrotation
					End Site
					{
						OFFSET 0.000000 0.000000 0.000000 
					}
				}
			}
			JOINT LeftArm
			{
				OFFSET 3.362410 1.200890 -0.311210 
				CHANNELS 3 Zrotation Yrotation Xrotation
				JOINT LeftForeArm
				{
					OFFSET 4.983000 -0.000000 -0.000000 
					CHANNELS 3 Zrotation Yrotation Xrotation
					JOINT LeftHand
					{
						OFFSET 3.483560 -0.000000 -0.000000 
						CHANNELS 3 Zrotation Yrotation Xrotation
						JOINT LeftHandIndex1
						{
							OFFSET 0.715260 -0.000000 -0.000000 
							CHANNELS 3 Zrotation Yrotation Xrotation
							End Site
							{
								OFFSET 0.000000 0.000000 0.000000 
							}
						}
					}
				}
			}
			JOINT RightArm
			{
				OFFSET -3.136600 1.374050 -0.404650 
				CHANNELS 3 Zrotation Yrotation Xrotation
				JOINT RightForeArm
				{
					OFFSET -5.241900 -0.000000 -0.000000 
					CHANNELS 3 Zrotation Yrotation Xrotation
					JOINT RightHand
					{
						OFFSET -3.444170 -0.000000 -0.000000 
						CHANNELS 3 Zrotation Yrotation Xrotation
						JOINT RightHandIndex1
						{
							OFFSET -0.622530 -0.000000 -0.000000 
							CHANNELS 3 Zrotation Yrotation Xrotation
							End Site
							{
								OFFSET 0.000000 0.000000 0.000000 
							}
						}
					}
				}
			}
		}
	}
}
MOTION
Frames: 12
Frame Time: 0.041667
14.097851 18.004014 -19.538134 179.315925 -19.597939 -171.823144 -19.965113 -8.472621 -28.175223 6.126272 18.019851 50.792784 -2.027142 9.822257 13.629093 0.303100 -3.539700 -9.785100 27.644858 9.255276 -14.257140 -0.305763 -10.021922 27.913282 3.054979 -11.954824 -2.718781 -0.220600 -3.023400 8.344000 0.135469 1.845859 -0.030497 -0.812265 1.486429 -6.135219 2.869137 8.458421 15.492372 -1.909300 4.731000 6.388000 -75.797973 16.718612 44.833961 14.812702 -22.205184 -5.109136 -0.813751 -0.070607 -18.520657 -7.125000 0.000000 0.000000 66.694958 -13.935618 37.122800 -25.618065 32.887394 -11.471328 1.399355 4.519420 -12.945600 7.125000 0.000000 0.000000 
14.066286 17.974017 -19.660943 179.481834 -19.538983 -171.824456 -19.710477 -8.589333 -28.424157 5.605698 17.734593 49.356535 -2.001504 9.669649 12.886116 0.140000 -2.411500 -6.644500 27.902684 9.348989 -13.721945 -0.283638 -9.943002 27.796084 3.076099 -12.007883 -3.183991 -0.158000 -2.560900 7.058500 0.096105 2.000119 -0.098152 -0.942149 1.569057 -6.275251 2.920920 8.368834 15.517290 -1.916600 4.697200 6.357600 -75.649724 17.204034 44.967587 14.903855 -22.403556 -5.188333 -0.777743 -0.160908 -18.420983 -7.125000 0.000000 0.000000 66.652715 -14.168484 36.477025 -26.098543 33.344026 -11.871459 1.217414 4.548707 -10.961242 7.125000 0.000000 0.000000 
14.033049 17.971823 -19.794100 179.547471 -19.333474 -171.795002 -19.544913 -8.510217 -28.898195 5.075996 17.433668 47.756586 -2.110286 10.008545 12.771464 0.068100 -1.683200 -4.631000 28.045851 9.422107 -13.080531 -0.244654 -9.815030 27.560009 3.136769 -12.168893 -3.526179 -0.293200 -3.482200 9.624400 0.048420 2.213522 -0.050371 -1.014204 1.672432 -6.051476 3.067462 8.366502 15.799449 -1.798800 4.702600 6.571400 -75.501752 17.274621 45.201711 14.951024 -22.488102 -5.218741 -0.796619 -0.163193 -18.477064 -7.125000 0.000000 0.000000 66.676098 -14.074818 35.894650 -26.735986 33.887377 -12.368472 1.126457 4.580144 -10.349827 7.125000 0.000000 0.000000 
13.995736 17.977571 -19.927883 179.358837 -19.157820 -171.681382 -19.652939 -8.471263 -29.365365 4.540777 17.114408 46.112827 -2.242704 10.457460 12.901813 0.064000 -1.632200 -4.490100 27.890962 9.316894 -12.385413 -0.172273 -9.606084 27.123142 3.198424 -12.312685 -3.716647 -0.127400 -2.300700 6.337300 0.009987 2.265998 0.028320 -0.940770 1.713340 -5.732313 3.056545 8.509197 15.758920 -1.759900 4.762400 6.612300 -75.534689 17.335006 45.178837 14.974329 -22.529088 -5.227220 -0.865778 -0.087034 -18.455042 -7.125000 0.000000 0.000000 66.577121 -13.821502 36.135659 -27.194903 34.238324 -12.670677 1.266573 4.499263 -11.851593 7.125000 0.000000 0.000000 
13.959468 17.982797 -20.053410 179.274814 -19.036215 -171.661631 -19.611754 -8.445599 -29.747198 3.967737 16.744243 44.433214 -2.182138 10.365666 12.818867 0.021100 -0.937300 -2.576200 27.837837 9.186650 -11.553528 -0.049650 -9.305290 26.446397 3.191350 -12.254085 -3.939966 -0.126300 -2.290500 6.309100 0.023018 2.287206 0.035126 -0.832237 1.754205 -5.737238 2.898469 8.662977 15.386358 -1.842900 4.819500 6.405500 -75.746622 17.542647 44.876791 14.983286 -22.554198 -5.234588 -0.902958 -0.031916 -18.236111 -7.125000 0.000000 0.000000 66.309121 -13.640306 36.559088 -27.438614 34.426926 -12.831224 1.344735 4.456073 -12.901412 7.125000 0.000000 0.000000 
13.925186 17.991577 -20.180190 179.666359 -18.898589 -171.752572 -19.083256 -8.267726 -30.218015 3.400475 16.344270 42.712169 -2.051690 10.131652 12.870776 0.002800 -0.341600 -0.938600 28.286977 9.136387 -10.714537 0.087657 -8.995162 25.704639 3.203984 -12.275188 -4.213291 -0.145800 -2.460800 6.780800 0.010169 2.496233 0.013828 -1.034594 1.854683 -5.739636 3.138770 8.692662 15.367242 -1.698700 4.833300 6.364600 -75.630199 17.608016 44.997533 14.961506 -22.544987 -5.227647 -0.893193 -0.038878 -18.260207 -7.125000 0.000000 0.000000 66.273645 -13.482426 36.460150 -27.828927 34.747664 -13.147516 1.267149 4.513261 -13.068016 7.125000 0.000000 0.000000 
13.889127 17.998161 -20.312615 -179.931990 -18.792794 -171.829333 -18.388880 -8.323139 -30.394619 2.801606 15.876675 40.952203 -1.600652 9.160400 13.211980 0.020000 0.913700 2.511500 28.737961 8.996875 -9.904121 0.212718 -8.695851 24.984837 3.265988 -12.437557 -4.386311 -0.322600 -3.650800 10.096300 -0.025590 2.665218 0.002553 -1.266771 1.925342 -5.621816 3.584224 8.708137 15.587034 -1.429500 4.851200 6.471100 -75.360307 17.722602 45.259134 14.955792 -22.582949 -5.241277 -0.867806 -0.043111 -18.317275 -7.125000 0.000000 0.000000 66.236812 -13.427784 36.497266 -28.327655 35.158928 -13.545892 1.183105 4.544206 -13.316865 7.125000 0.000000 0.000000 
13.853487 17.991786 -20.439918 -179.740534 -18.703290 -171.926426 -17.794166 -8.567632 -30.295991 2.168370 15.338555 39.157928 -0.850500 7.485776 13.681503 0.280400 3.405500 9.409700 28.995548 9.079316 -8.933596 0.330079 -8.393822 24.273775 3.388613 -12.768210 -4.595049 -0.117000 -2.205300 6.073300 -0.019888 2.706806 -0.031112 -1.281165 1.958427 -5.726887 3.477902 8.785783 15.545066 -1.491800 4.888800 6.463700 -75.259997 17.997328 45.381153 15.002845 -22.696786 -5.292310 -0.826145 -0.082514 -18.248179 -7.125000 0.000000 0.000000 66.088553 -13.556212 36.684284 -28.790125 35.534148 -13.900400 1.180628 4.512915 -13.004315 7.125000 0.000000 0.000000 
13.819100 17.988441 -20.569312 -179.754763 -18.454687 -171.900928 -17.675397 -8.372405 -30.527445 1.582725 14.802648 37.277104 -0.621986 7.122333 14.086757 0.348300 3.791900 10.491800 29.003391 9.115179 -8.111181 0.437847 -8.104610 23.587727 3.529572 -13.140367 -4.666750 -0.049000 -1.428000 3.927200 -0.034066 2.807966 -0.051864 -1.185900 2.038458 -5.805759 2.980347 8.900240 15.188731 -1.791800 4.934000 6.294700 -75.174803 18.258336 45.538424 15.090914 -22.865235 -5.367759 -0.771837 -0.180553 -18.270818 -7.125000 0.000000 0.000000 65.997343 -13.495074 36.715744 -29.035153 35.719874 -14.084590 1.201742 4.493814 -12.479851 7.125000 0.000000 0.000000 
13.785341 17.990740 -20.702155 -179.796824 -18.286974 -171.787139 -17.850654 -7.834179 -31.112291 1.062867 14.292552 35.352051 -0.907200 8.066366 14.617015 0.042400 1.329200 3.655100 28.982278 9.246885 -7.348991 0.541718 -7.834211 22.959093 3.630253 -13.407533 -4.996921 -0.083500 -1.863400 5.128200 -0.026941 2.800921 -0.092038 -1.016779 2.071174 -5.812161 2.810167 9.062802 14.880841 -1.897200 5.003100 6.109200 -75.273768 18.658716 45.348572 15.176427 -23.032761 -5.441130 -0.756953 -0.212238 -18.254815 -7.125000 0.000000 0.000000 65.861548 -13.413757 37.030083 -29.402419 36.005886 -14.375564 1.143600 4.511047 -12.755037 7.125000 0.000000 0.000000 
13.748132 17.979452 -20.829667 -179.640551 -18.290332 -171.783110 -17.797308 -7.450554 -31.549704 0.578145 13.769861 33.475340 -1.109369 8.854333 15.375838 0.024400 -1.008900 -2.773400 29.214272 9.463934 -6.454173 0.641842 -7.570806 22.365089 3.705613 -13.623144 -5.530213 -0.254500 -3.246000 8.964400 0.019811 2.706267 -0.175067 -0.923666 2.051454 -5.935931 2.730089 9.181183 14.727718 -1.956300 5.055500 5.973200 -75.463254 19.110173 45.135301 15.187631 -23.093780 -5.460527 -0.782889 -0.184738 -18.255962 -7.125000 0.000000 0.000000 65.710480 -13.559905 37.395523 -29.897471 36.396903 -14.767374 1.065617 4.484319 -12.793110 7.125000 0.000000 0.000000 
13.706220 17.971404 -20.957284 -179.635148 -18.110024 -171.695062 -17.663451 -7.414343 -31.652057 0.109844 13.227164 31.697956 -1.135628 9.127704 15.782515 0.042800 -1.335900 -3.673500 29.174177 9.371710 -5.743785 0.734331 -7.307711 21.766065 3.727614 -13.660442 -5.660270 -0.459800 -4.349800 12.062900 -0.025764 2.835059 -0.175576 -1.000548 2.120717 -5.831031 2.302489 9.219861 14.659346 -2.189000 5.068300 5.974900 -75.376691 19.094736 45.283242 15.145658 -23.052465 -5.433791 -0.804673 -0.154430 -18.266838 -7.125000 0.000000 0.000000 65.571290 -13.292485 37.480615 -29.957141 36.429511 -14.805328 1.030540 4.429044 -12.363881 7.125000 0.000000 0.000000 
